<svg width="14" height="14" viewBox="0 0 14 14" fill="none" xmlns="http://www.w3.org/2000/svg">
<path d="M13.1565 0.797149C12.9617 0.60147 12.6451 0.600794 12.4494 0.795638C12.2538 0.990482 12.2531 1.30706 12.4479 1.50274L13.1565 0.797149ZM12.8914 3.2247L13.2457 3.57749L13.262 3.56113L13.2767 3.54334L12.8914 3.2247ZM12.4493 1.50412C12.6441 1.6998 12.9607 1.70048 13.1564 1.50563C13.3521 1.31079 13.3528 0.994209 13.1579 0.79853L12.4493 1.50412ZM10.7377 1.06182L10.4174 0.677851L10.3997 0.692651L10.3834 0.709026L10.7377 1.06182ZM9.57708 1.5188C9.38224 1.71448 9.38291 2.03106 9.57859 2.2259C9.77427 2.42075 10.0909 2.42007 10.2857 2.22439L9.57708 1.5188ZM11.7307 3.68167C11.5359 3.87735 11.5366 4.19393 11.7322 4.38878C11.9279 4.58362 12.2445 4.58294 12.4393 4.38726L11.7307 3.68167ZM1.97884 1.50274C2.17368 1.30706 2.17301 0.990482 1.97733 0.795638C1.78165 0.600794 1.46507 0.60147 1.27022 0.797149L1.97884 1.50274ZM1.53541 3.2247L1.15009 3.54334L1.16481 3.56113L1.1811 3.57749L1.53541 3.2247ZM1.26885 0.79853C1.074 0.994209 1.07468 1.31079 1.27036 1.50563C1.46604 1.70048 1.78262 1.6998 1.97746 1.50412L1.26885 0.79853ZM3.68906 1.06182L4.04337 0.709026L4.02706 0.692651L4.00932 0.677851L3.68906 1.06182ZM4.14107 2.22439C4.33591 2.42007 4.65249 2.42075 4.84817 2.2259C5.04385 2.03106 5.04453 1.71448 4.84968 1.5188L4.14107 2.22439ZM1.98742 4.38726C2.18226 4.58294 2.49885 4.58362 2.69452 4.38878C2.8902 4.19393 2.89088 3.87735 2.69604 3.68167L1.98742 4.38726ZM10.7226 13.0042C10.8602 13.2436 11.1659 13.3261 11.4053 13.1885C11.6447 13.0509 11.7272 12.7452 11.5896 12.5058L10.7226 13.0042ZM2.92886 12.5058C2.79123 12.7452 2.87373 13.0509 3.11313 13.1885C3.35253 13.3261 3.65818 13.2436 3.7958 13.0042L2.92886 12.5058ZM7.30377 6.66639H6.80377V7.16639H7.30377V6.66639ZM7.80377 3.27355C7.80377 2.99741 7.57991 2.77355 7.30377 2.77355C7.02762 2.77355 6.80377 2.99741 6.80377 3.27355H7.80377ZM9.18064 7.16639C9.45678 7.16639 9.68064 6.94254 9.68064 6.66639C9.68064 6.39025 9.45678 6.16639 9.18064 6.16639V7.16639ZM12.4479 1.50274C12.4482 1.503 12.4483 1.5031 12.4484 1.50319L13.1575 0.798084C13.1571 0.797711 13.1567 0.797356 13.1565 0.797149L12.4479 1.50274ZM12.4484 1.50319C12.8214 1.87831 12.8068 2.54237 12.506 2.90605L13.2767 3.54334C13.8724 2.82293 13.9288 1.57375 13.1575 0.798084L12.4484 1.50319ZM13.1579 0.79853C13.1578 0.798398 13.1574 0.797985 13.157 0.797595L12.4489 1.50368C12.4489 1.50375 12.449 1.50379 12.4493 1.50412L13.1579 0.79853ZM13.157 0.797595C12.3835 0.0218506 11.1362 0.0783789 10.4174 0.677851L11.058 1.44579C11.4187 1.14491 12.0765 1.13023 12.4489 1.50368L13.157 0.797595ZM10.3834 0.709026L9.57708 1.5188L10.2857 2.22439L11.092 1.41462L10.3834 0.709026ZM12.537 2.8719L11.7307 3.68167L12.4393 4.38726L13.2457 3.57749L12.537 2.8719ZM1.27022 0.797149C1.2699 0.79747 1.26959 0.797782 1.26929 0.798084L1.9784 1.50319C1.97855 1.50303 1.9787 1.50288 1.97884 1.50274L1.27022 0.797149ZM1.26929 0.798084C0.498003 1.57375 0.554337 2.82293 1.15009 3.54334L1.92072 2.90605C1.61997 2.54237 1.60539 1.87831 1.9784 1.50319L1.26929 0.798084ZM1.97746 1.50412C1.9776 1.50398 1.97775 1.50384 1.97791 1.50368L1.26978 0.797595C1.26948 0.797897 1.26917 0.798209 1.26885 0.79853L1.97746 1.50412ZM1.97791 1.50368C2.35028 1.13023 3.00806 1.14491 3.3688 1.44579L4.00932 0.677851C3.29058 0.0783789 2.04328 0.0218506 1.26978 0.797595L1.97791 1.50368ZM3.33475 1.41462L4.14107 2.22439L4.84968 1.5188L4.04337 0.709026L3.33475 1.41462ZM1.1811 3.57749L1.98742 4.38726L2.69604 3.68167L1.88972 2.8719L1.1811 3.57749ZM9.49792 10.8739L10.7226 13.0042L11.5896 12.5058L10.3649 10.3755L9.49792 10.8739ZM4.15355 10.3755L2.92886 12.5058L3.7958 13.0042L5.02049 10.8739L4.15355 10.3755ZM7.80377 6.66639V3.27355H6.80377V6.66639H7.80377ZM7.30377 7.16639H9.18064V6.16639H7.30377V7.16639ZM12.059 6.38366C12.059 8.97231 9.97002 11.0672 7.39761 11.0672V12.0672C10.5263 12.0672 13.059 9.52056 13.059 6.38366H12.059ZM7.39761 11.0672C4.8252 11.0672 2.73621 8.97231 2.73621 6.38366H1.73621C1.73621 9.52056 4.26889 12.0672 7.39761 12.0672V11.0672ZM2.73621 6.38366C2.73621 3.79501 4.8252 1.70015 7.39761 1.70015V0.700147C4.26889 0.700147 1.73621 3.24676 1.73621 6.38366H2.73621ZM7.39761 1.70015C9.97002 1.70015 12.059 3.79501 12.059 6.38366H13.059C13.059 3.24676 10.5263 0.700147 7.39761 0.700147V1.70015Z" fill="#D09F9E"/>
</svg>
