<svg width="20" height="20" viewBox="0 0 20 20" fill="none" xmlns="http://www.w3.org/2000/svg">
<path d="M0 0.714148C0 0.524744 0.0752405 0.343098 0.209169 0.209169C0.343098 0.0752402 0.524744 0 0.714148 0H1.33974C2.37811 0 2.97514 0.675584 3.32079 1.34974C3.55646 1.81108 3.72642 2.37383 3.86782 2.8623H18.5721C18.7928 2.86237 19.0105 2.91358 19.2081 3.01191C19.4057 3.11024 19.5778 3.25302 19.7109 3.42904C19.844 3.60507 19.9345 3.80955 19.9754 4.02644C20.0162 4.24332 20.0062 4.46672 19.9461 4.6791L17.8094 12.2134C17.6395 12.8111 17.2792 13.3371 16.7833 13.7117C16.2874 14.0862 15.6828 14.2887 15.0614 14.2887H7.80707C7.18044 14.2889 6.57112 14.083 6.073 13.7029C5.57487 13.3227 5.21557 12.7893 5.05045 12.1848L4.13349 8.82115L4.1192 8.77545L2.64806 3.77927L2.50523 3.29793C2.3624 2.80374 2.23671 2.36669 2.04818 1.99961C1.82108 1.55684 1.61255 1.4283 1.33974 1.4283H0.714148C0.524744 1.4283 0.343098 1.35306 0.209169 1.21913C0.0752405 1.0852 0 0.903552 0 0.714148ZM5.49608 8.38981L6.42876 11.812C6.51145 12.1141 6.69116 12.3807 6.94021 12.5706C7.18926 12.7606 7.49384 12.8634 7.80707 12.8632H15.0628C15.3734 12.8629 15.6754 12.7614 15.9231 12.574C16.1708 12.3866 16.3506 12.1236 16.4354 11.8249L18.5721 4.2906H4.28917L5.49608 8.38981ZM10.0024 17.858C10.0024 18.4262 9.77663 18.9711 9.37485 19.3729C8.97306 19.7747 8.42812 20.0004 7.85991 20.0004C7.2917 20.0004 6.74676 19.7747 6.34497 19.3729C5.94319 18.9711 5.71747 18.4262 5.71747 17.858C5.71747 17.2898 5.94319 16.7448 6.34497 16.343C6.74676 15.9413 7.2917 15.7155 7.85991 15.7155C8.42812 15.7155 8.97306 15.9413 9.37485 16.343C9.77663 16.7448 10.0024 17.2898 10.0024 17.858ZM8.57406 17.858C8.57406 17.6686 8.49882 17.4869 8.36489 17.353C8.23096 17.2191 8.04932 17.1438 7.85991 17.1438C7.67051 17.1438 7.48886 17.2191 7.35493 17.353C7.221 17.4869 7.14576 17.6686 7.14576 17.858C7.14576 18.0474 7.221 18.229 7.35493 18.363C7.48886 18.4969 7.67051 18.5721 7.85991 18.5721C8.04932 18.5721 8.23096 18.4969 8.36489 18.363C8.49882 18.229 8.57406 18.0474 8.57406 17.858ZM17.1438 17.858C17.1438 18.4262 16.9181 18.9711 16.5163 19.3729C16.1145 19.7747 15.5696 20.0004 15.0014 20.0004C14.4332 20.0004 13.8882 19.7747 13.4865 19.3729C13.0847 18.9711 12.8589 18.4262 12.8589 17.858C12.8589 17.2898 13.0847 16.7448 13.4865 16.343C13.8882 15.9413 14.4332 15.7155 15.0014 15.7155C15.5696 15.7155 16.1145 15.9413 16.5163 16.343C16.9181 16.7448 17.1438 17.2898 17.1438 17.858ZM15.7155 17.858C15.7155 17.6686 15.6403 17.4869 15.5064 17.353C15.3724 17.2191 15.1908 17.1438 15.0014 17.1438C14.812 17.1438 14.6303 17.2191 14.4964 17.353C14.3625 17.4869 14.2872 17.6686 14.2872 17.858C14.2872 18.0474 14.3625 18.229 14.4964 18.363C14.6303 18.4969 14.812 18.5721 15.0014 18.5721C15.1908 18.5721 15.3724 18.4969 15.5064 18.363C15.6403 18.229 15.7155 18.0474 15.7155 17.858Z" fill="#D09F9E"/>
</svg>
