<svg width="13" height="10" viewBox="0 0 13 10" fill="none" xmlns="http://www.w3.org/2000/svg">
<path d="M5.8204 3.00197H12.3673M5.8204 3.00197C5.8204 3.90592 5.08761 4.63871 4.18366 4.63871C3.27972 4.63871 2.54692 3.90592 2.54692 3.00197M5.8204 3.00197C5.8204 2.09803 5.08761 1.36523 4.18366 1.36523C3.27972 1.36523 2.54692 2.09803 2.54692 3.00197M0.910187 3.00197H2.54692M9.91224 7.09382H12.3673M9.91224 7.09382C9.91224 7.99776 9.17945 8.73055 8.27551 8.73055C7.37156 8.73055 6.63877 7.99776 6.63877 7.09382M9.91224 7.09382C9.91224 6.18987 9.17945 5.45708 8.27551 5.45708C7.37156 5.45708 6.63877 6.18987 6.63877 7.09382M0.910187 7.09382H6.63877" stroke="#FAF8F8" stroke-linecap="round" stroke-linejoin="round"/>
</svg>
