<svg width="22" height="3" viewBox="0 0 22 3" fill="none" xmlns="http://www.w3.org/2000/svg">
<path d="M8.07921 4.16438C8.14639 4.02991 8.25243 3.91873 8.38357 3.84527C8.51471 3.7718 8.6649 3.73944 8.81466 3.75237C8.96442 3.76531 9.10684 3.82294 9.22344 3.91781C9.34004 4.01267 9.42545 4.14038 9.46858 4.28438L11.1748 9.97313L12.5811 7.16438C12.6434 7.03982 12.7391 6.93506 12.8576 6.86185C12.9761 6.78864 13.1126 6.74986 13.2519 6.74986C13.3911 6.74986 13.5276 6.78864 13.6461 6.86185C13.7646 6.93506 13.8603 7.03982 13.9226 7.16438L15.2136 9.75H19.7492C20.4245 8.35779 20.7671 6.82772 20.75 5.28047C20.7205 2.36906 18.3847 0 15.5431 0C13.2889 0 11.7931 1.38469 11 2.39063C10.2087 1.38328 8.71108 0 6.45686 0C3.6153 0 1.27952 2.36906 1.24999 5.28047C1.23787 6.28583 1.37902 7.28717 1.66858 8.25H6.03639L8.07921 4.16438Z" fill="#104768"/>
<path d="M14.0792 10.8356L13.25 9.1772L11.6708 12.3356C11.6084 12.4602 11.5127 12.5649 11.3942 12.6381C11.2757 12.7113 11.1392 12.75 11 12.75C10.979 12.75 10.9575 12.7491 10.9353 12.7472C10.7852 12.7347 10.6423 12.6774 10.5252 12.5826C10.4082 12.4878 10.3224 12.3599 10.279 12.2156L8.57279 6.52689L7.16654 9.33564C7.10455 9.45953 7.00945 9.56383 6.89179 9.63698C6.77414 9.71012 6.63852 9.74924 6.49998 9.75001H2.25076C2.68826 10.6653 3.27061 11.5663 3.99779 12.4528C4.87764 13.5253 6.47279 15.24 10.1567 17.7408C10.4051 17.9111 10.6993 18.0022 11.0005 18.0022C11.3016 18.0022 11.5958 17.9111 11.8442 17.7408C15.5281 15.24 17.1233 13.5253 18.0031 12.4528C18.32 12.0671 18.6173 11.6657 18.8937 11.25H14.75C14.6107 11.25 14.4742 11.2113 14.3557 11.1381C14.2373 11.0649 14.1415 10.9602 14.0792 10.8356Z" fill="#104768"/>
<path d="M20.75 9.75H19.7492C19.4999 10.2696 19.214 10.7709 18.8937 11.25L20.75 11.25C20.9489 11.25 21.1397 11.171 21.2803 11.0303C21.421 10.8897 21.5 10.6989 21.5 10.5C21.5 10.3011 21.421 10.1103 21.2803 9.96967C21.1397 9.82902 20.9489 9.75 20.75 9.75Z" fill="#104768"/>
<path d="M1.25 8.25C1.05109 8.25 0.860322 8.32902 0.71967 8.46967C0.579018 8.61032 0.5 8.80109 0.5 9C0.5 9.19891 0.579018 9.38968 0.71967 9.53033C0.860322 9.67098 1.05109 9.75 1.25 9.75L2.25076 9.75001C2.01883 9.26555 1.8242 8.76408 1.66858 8.25H1.25Z" fill="#104768"/>
</svg>
