<svg width="29" height="27" viewBox="0 0 29 27" fill="none" xmlns="http://www.w3.org/2000/svg">
<path d="M14.3883 4.05938C14.3011 3.97593 14.185 3.92936 14.0643 3.92936C13.9436 3.92936 13.8275 3.97593 13.7403 4.05938L2.95315 14.3643C2.90734 14.4081 2.87089 14.4607 2.84601 14.5191C2.82114 14.5774 2.80835 14.6401 2.80842 14.7035L2.80666 24.375C2.80666 24.8723 3.00421 25.3492 3.35584 25.7008C3.70747 26.0525 4.18438 26.25 4.68166 26.25H10.3125C10.5612 26.25 10.7996 26.1512 10.9754 25.9754C11.1512 25.7996 11.25 25.5611 11.25 25.3125V17.3438C11.25 17.2194 11.2994 17.1002 11.3873 17.0123C11.4752 16.9244 11.5945 16.875 11.7188 16.875H16.4063C16.5306 16.875 16.6498 16.9244 16.7377 17.0123C16.8256 17.1002 16.875 17.2194 16.875 17.3438V25.3125C16.875 25.5611 16.9738 25.7996 17.1496 25.9754C17.3254 26.1512 17.5639 26.25 17.8125 26.25H23.441C23.9383 26.25 24.4152 26.0525 24.7669 25.7008C25.1185 25.3492 25.316 24.8723 25.316 24.375V14.7035C25.3161 14.6401 25.3033 14.5774 25.2784 14.5191C25.2536 14.4607 25.2171 14.4081 25.1713 14.3643L14.3883 4.05938Z" fill="white"/>
<path d="M27.8268 12.4307L23.444 8.23769V1.875C23.444 1.62636 23.3452 1.3879 23.1694 1.21209C22.9936 1.03627 22.7551 0.9375 22.5065 0.9375H19.694C19.4453 0.9375 19.2069 1.03627 19.0311 1.21209C18.8552 1.3879 18.7565 1.62636 18.7565 1.875V3.75L15.3627 0.505078C15.0451 0.183984 14.5729 0 14.0625 0C13.5539 0 13.0828 0.183984 12.7653 0.505664L0.302366 12.4295C-0.0620872 12.7811 -0.10779 13.3594 0.22385 13.7402C0.30713 13.8364 0.409101 13.9146 0.523556 13.97C0.638012 14.0255 0.762559 14.0571 0.889616 14.0629C1.01667 14.0687 1.14358 14.0486 1.26263 14.0038C1.38167 13.959 1.49035 13.8905 1.58205 13.8023L13.7403 2.18437C13.8275 2.10093 13.9436 2.05435 14.0643 2.05435C14.185 2.05435 14.3011 2.10093 14.3883 2.18437L26.5477 13.8023C26.7268 13.9741 26.9667 14.0679 27.2148 14.063C27.4629 14.0582 27.699 13.9552 27.8713 13.7766C28.2311 13.4039 28.2012 12.7887 27.8268 12.4307Z" fill="white"/>
</svg>
