<svg width="17" height="25" viewBox="0 0 17 25" fill="none" xmlns="http://www.w3.org/2000/svg">
<path d="M3.87234 23.25C3.45813 23.25 3.12234 23.5858 3.12234 24C3.12234 24.4142 3.45813 24.75 3.87234 24.75L3.87234 23.25ZM13.4468 24.75C13.861 24.75 14.1968 24.4142 14.1968 24C14.1968 23.5858 13.861 23.25 13.4468 23.25L13.4468 24.75ZM4.51064 4.72749H3.76064V4.72749L4.51064 4.72749ZM12.4894 4.72749L11.7394 4.72749V4.72749L12.4894 4.72749ZM12.4894 13.2468H13.2394V13.2468L12.4894 13.2468ZM4.51065 13.2468H5.26065V13.2467L4.51065 13.2468ZM8.50001 16.9742V17.7242V16.9742ZM8.49999 1V0.25V1ZM1 11.7532V11.0032C0.585788 11.0032 0.250001 11.339 0.250001 11.7532L1 11.7532ZM1 12.7358H0.25H1ZM16 12.7358L15.25 12.7358V12.7358H16ZM16 11.7532L16.75 11.7532C16.75 11.5543 16.671 11.3636 16.5303 11.2229C16.3897 11.0823 16.1989 11.0032 16 11.0032V11.7532ZM7.90957 24C7.90957 24.4142 8.24536 24.75 8.65957 24.75C9.07379 24.75 9.40957 24.4142 9.40957 24H7.90957ZM9.40957 20.1169C9.40957 19.7027 9.07379 19.3669 8.65957 19.3669C8.24536 19.3669 7.90957 19.7027 7.90957 20.1169H9.40957ZM3.87234 24.75L13.4468 24.75L13.4468 23.25L3.87234 23.25L3.87234 24.75ZM8.50001 16.2242C6.66218 16.2242 5.26065 14.844 5.26065 13.2468L3.76065 13.2467C3.76065 15.7667 5.93131 17.7242 8.50001 17.7242L8.50001 16.2242ZM11.7394 13.2468C11.7394 14.844 10.3378 16.2242 8.50001 16.2242V17.7242C11.0687 17.7242 13.2394 15.7667 13.2394 13.2468H11.7394ZM8.49999 1.75C10.3378 1.75 11.7394 3.13022 11.7394 4.72749L13.2394 4.72749C13.2394 2.20749 11.0687 0.25 8.49999 0.25V1.75ZM5.26064 4.72749C5.26064 3.13022 6.66217 1.75 8.49999 1.75V0.25C5.9313 0.25 3.76064 2.20749 3.76064 4.72749L5.26064 4.72749ZM5.26065 13.2467L5.26064 4.72749L3.76064 4.72749L3.76065 13.2468L5.26065 13.2467ZM11.7394 4.72749L11.7394 13.2468L13.2394 13.2468L13.2394 4.72749L11.7394 4.72749ZM0.250001 11.7532L0.25 12.7358L1.75 12.7358L1.75 11.7532L0.250001 11.7532ZM8.5 20.8669C13.045 20.8669 16.75 17.2377 16.75 12.7358H15.25C15.25 16.3868 12.2393 19.3669 8.5 19.3669V20.8669ZM0.25 12.7358C0.25 17.2377 3.955 20.8669 8.5 20.8669V19.3669C4.76073 19.3669 1.75 16.3868 1.75 12.7358H0.25ZM16.75 12.7358L16.75 11.7532L15.25 11.7532L15.25 12.7358L16.75 12.7358ZM12.4894 12.5032H16V11.0032H12.4894V12.5032ZM1 12.5032H4.75V11.0032H1V12.5032ZM9.40957 24V20.1169H7.90957V24H9.40957Z" fill="#D09F9E"/>
</svg>
