<svg width="17" height="16" viewBox="0 0 17 16" fill="none" xmlns="http://www.w3.org/2000/svg">
<path d="M6.156 8.728C6.58459 8.728 6.99563 8.89826 7.29868 9.20132C7.60174 9.50437 7.772 9.91541 7.772 10.344V14.384C7.772 14.8126 7.60174 15.2236 7.29868 15.5267C6.99563 15.8297 6.58459 16 6.156 16H2.116C1.68741 16 1.27637 15.8297 0.973315 15.5267C0.670257 15.2236 0.5 14.8126 0.5 14.384V10.344C0.5 9.91541 0.670257 9.50437 0.973315 9.20132C1.27637 8.89826 1.68741 8.728 2.116 8.728H6.156ZM14.884 8.728C15.3126 8.728 15.7236 8.89826 16.0267 9.20132C16.3297 9.50437 16.5 9.91541 16.5 10.344V14.384C16.5 14.8126 16.3297 15.2236 16.0267 15.5267C15.7236 15.8297 15.3126 16 14.884 16H10.844C10.4154 16 10.0044 15.8297 9.70132 15.5267C9.39826 15.2236 9.228 14.8126 9.228 14.384V10.344C9.228 9.91541 9.39826 9.50437 9.70132 9.20132C10.0044 8.89826 10.4154 8.728 10.844 8.728H14.884ZM6.156 0C6.58459 0 6.99563 0.170257 7.29868 0.473315C7.60174 0.776374 7.772 1.18741 7.772 1.616V5.656C7.772 6.08459 7.60174 6.49563 7.29868 6.79868C6.99563 7.10174 6.58459 7.272 6.156 7.272H2.116C1.68741 7.272 1.27637 7.10174 0.973315 6.79868C0.670257 6.49563 0.5 6.08459 0.5 5.656V1.616C0.5 1.18741 0.670257 0.776374 0.973315 0.473315C1.27637 0.170257 1.68741 0 2.116 0L6.156 0ZM14.884 0C15.3126 0 15.7236 0.170257 16.0267 0.473315C16.3297 0.776374 16.5 1.18741 16.5 1.616V5.656C16.5 6.08459 16.3297 6.49563 16.0267 6.79868C15.7236 7.10174 15.3126 7.272 14.884 7.272H10.844C10.4154 7.272 10.0044 7.10174 9.70132 6.79868C9.39826 6.49563 9.228 6.08459 9.228 5.656V1.616C9.228 1.18741 9.39826 0.776374 9.70132 0.473315C10.0044 0.170257 10.4154 0 10.844 0L14.884 0Z" fill="white"/>
</svg>
