<svg width="17" height="19" viewBox="0 0 17 19" fill="none" xmlns="http://www.w3.org/2000/svg">
<path d="M16.0502 12.999C15.9821 12.917 15.9152 12.835 15.8496 12.7558C14.9473 11.6644 14.4014 11.0057 14.4014 7.91598C14.4014 6.31637 14.0187 5.00387 13.2644 4.01949C12.7082 3.29228 11.9564 2.74063 10.9655 2.33293C10.9527 2.32584 10.9413 2.31653 10.9318 2.30545C10.5754 1.11189 9.60007 0.3125 8.50003 0.3125C7.39999 0.3125 6.42505 1.11189 6.06862 2.30422C6.05911 2.31489 6.04788 2.3239 6.0354 2.33088C3.72294 3.28285 2.59911 5.10928 2.59911 7.91475C2.59911 11.0057 2.05402 11.6644 1.15085 12.7546C1.08523 12.8338 1.01837 12.9141 0.950285 12.9978C0.77441 13.2099 0.662979 13.468 0.629179 13.7414C0.595379 14.0149 0.640625 14.2923 0.759562 14.5408C1.01263 15.074 1.55198 15.405 2.16763 15.405H14.8369C15.4497 15.405 15.9854 15.0744 16.2393 14.5437C16.3587 14.2951 16.4044 14.0175 16.3709 13.7437C16.3374 13.4699 16.2261 13.2115 16.0502 12.999Z" fill="#D09F9E"/>
<path d="M8.5 18.6875C9.09269 18.687 9.6742 18.5261 10.1829 18.2219C10.6915 17.9177 11.1083 17.4815 11.3891 16.9595C11.4024 16.9345 11.4089 16.9065 11.4081 16.8782C11.4073 16.8499 11.3992 16.8223 11.3846 16.7981C11.37 16.7739 11.3494 16.7538 11.3247 16.7399C11.3001 16.726 11.2722 16.7187 11.2439 16.7188H5.75687C5.72854 16.7187 5.70066 16.7259 5.67596 16.7398C5.65126 16.7536 5.63057 16.7737 5.61591 16.7979C5.60125 16.8222 5.59311 16.8498 5.5923 16.8781C5.59149 16.9064 5.59802 16.9345 5.61127 16.9595C5.89203 17.4814 6.3088 17.9176 6.81737 18.2218C7.32595 18.526 7.90737 18.6869 8.5 18.6875Z" fill="#D09F9E"/>
</svg>
