<svg width="10" height="10" viewBox="0 0 10 10" fill="none" xmlns="http://www.w3.org/2000/svg">
<path d="M6.66392 2.93115L5.6906 1.23685C5.50988 0.922259 5.05656 0.920754 4.87376 1.23413L3.84669 2.99482C3.71065 3.22803 3.48126 3.39181 3.21652 3.44476L1.81315 3.72543C1.44969 3.79813 1.30806 4.24225 1.56234 4.51194L2.57736 5.58848C2.79441 5.81868 2.88168 6.14233 2.80979 6.45044L2.35036 8.41944C2.25591 8.8242 2.69296 9.14456 3.05052 8.93267L4.80335 7.89396C5.10004 7.71814 5.469 7.71814 5.7657 7.89396L7.51852 8.93267C7.87608 9.14456 8.31313 8.8242 8.21869 8.41944L7.75523 6.4332C7.68556 6.13463 7.76526 5.82082 7.96895 5.59167L8.98522 4.44836C9.22737 4.17595 9.08245 3.74355 8.72506 3.67207L7.29723 3.38651C7.03035 3.33313 6.7995 3.16715 6.66392 2.93115Z" stroke="#BFBFE3" stroke-miterlimit="10"/>
</svg>
