<svg width="393" height="822" viewBox="0 0 393 822" fill="none" xmlns="http://www.w3.org/2000/svg">
<path d="M304.261 308.467C293.794 289.636 279.177 274.925 260.417 264.366C241.657 253.807 220.354 248.528 196.517 248.528C172.679 248.528 151.064 253.807 132.304 264.366C123.814 269.14 116.187 274.772 109.427 281.23C101.227 289.078 94.2923 298.157 88.6121 308.467C85.545 314.047 82.9208 319.854 80.7656 325.892C78.7221 331.606 77.0843 337.518 75.8522 343.648C73.9986 352.883 73.0643 362.594 73.0643 372.759C73.0643 396.787 78.2456 418.257 88.6121 437.203C98.9786 456.149 113.54 470.902 132.3 481.46C133.38 482.07 134.467 482.661 135.565 483.23C142.551 486.873 149.888 489.814 157.582 492.041C169.679 495.551 182.655 497.302 196.513 497.302C206.712 497.302 216.423 496.35 225.658 494.443C238.191 491.874 249.831 487.539 260.569 481.46C279.225 470.902 293.791 456.149 304.258 437.203C314.725 418.257 319.962 396.787 319.962 372.759C319.962 348.731 314.728 327.312 304.258 308.47L304.261 308.467ZM107.607 390.426C106.628 390.842 105.504 390.232 105.347 389.18C104.558 383.871 104.164 378.402 104.164 372.762C104.164 354.954 108.102 338.804 115.978 324.312C119.738 317.389 124.208 311.181 129.363 305.671C129.564 305.459 129.821 305.295 130.1 305.21C138.825 302.488 146.851 302.15 154.172 304.195C163.251 306.73 170.04 313.244 174.518 323.71C179.007 334.186 179.037 343.63 174.634 352.036C170.23 360.453 162.402 367.048 151.157 371.852L107.607 390.43V390.426ZM229.485 449.026C226.075 455.848 220.935 461.655 214.063 466.448C213.859 466.589 213.621 466.689 213.375 466.73C207.944 467.648 202.327 468.106 196.513 468.106C178.892 468.106 163.035 463.912 148.939 455.528C134.843 447.141 123.855 435.701 115.978 421.209C115.524 420.369 115.889 419.321 116.771 418.945L168.894 396.705C182.421 390.928 194.589 389.459 205.379 392.274C216.17 395.099 224.088 402.419 229.135 414.22C234.595 426.983 234.711 438.59 229.489 449.026H229.485ZM277.052 421.209C274.07 426.693 270.634 431.749 266.752 436.363C265.758 437.545 263.797 436.772 263.886 435.229C264.519 424.172 262.471 413.108 257.733 402.025C251.699 387.935 243.015 377.904 231.674 371.941C221.4 366.528 209.917 364.591 197.239 366.126C195.806 366.301 194.868 364.706 195.72 363.539C201.129 356.133 204.65 348.247 206.291 339.878C208.167 330.29 207.11 320.84 203.12 311.512C198.236 300.083 191.045 291.056 181.55 284.409C180.44 283.628 179.312 282.892 178.166 282.197C176.889 281.423 177.273 279.46 178.743 279.204C184.438 278.211 190.364 277.72 196.517 277.72C214.346 277.72 230.255 281.873 244.247 290.145C258.239 298.429 269.175 309.827 277.052 324.308C284.928 338.8 288.866 354.95 288.866 372.759C288.866 390.567 284.928 406.725 277.052 421.209Z" fill="#E8E8E8"/>
</svg>
