<svg width="393" height="468" viewBox="0 0 393 468" fill="none" xmlns="http://www.w3.org/2000/svg">
<path d="M84.9651 312.255C81.7129 310.424 79.1885 307.866 77.392 304.583C75.5935 301.299 74.6972 297.577 74.6972 293.413C74.6972 289.249 75.5955 285.535 77.392 282.27C79.1885 279.004 81.7129 276.456 84.9651 274.626C88.2174 272.795 91.9266 271.88 96.0965 271.88C100.266 271.88 103.921 272.795 107.176 274.626C110.428 276.456 112.962 279.004 114.776 282.27C116.59 285.537 117.498 289.251 117.498 293.413C117.498 297.575 116.59 301.299 114.776 304.583C112.96 307.868 110.436 310.424 107.203 312.255C103.968 314.085 100.266 315 96.0984 315C91.9304 315 88.2194 314.085 84.9671 312.255H84.9651ZM104.345 307.758C106.788 306.304 108.693 304.322 110.06 301.809C111.425 299.298 112.108 296.498 112.108 293.411C112.108 290.324 111.425 287.524 110.06 285.013C108.693 282.502 106.798 280.528 104.372 279.091C101.947 277.657 99.1881 276.938 96.0965 276.938C93.0049 276.938 90.2482 277.657 87.8225 279.091C85.3968 280.528 83.4997 282.502 82.1349 285.013C80.7681 287.526 80.0867 290.326 80.0867 293.411C80.0867 296.497 80.7681 299.298 82.1349 301.809C83.4997 304.322 85.4046 306.304 87.8496 307.758C90.2927 309.212 93.0416 309.938 96.0965 309.938C99.1513 309.938 101.9 309.212 104.345 307.758Z" fill="#E8E8E8"/>
<path d="M152.483 286.36C154.459 287.437 156.004 289.007 157.119 291.072C158.232 293.137 158.79 295.621 158.79 298.528V311.771C158.79 312.56 158.529 313.217 158.008 313.735C157.487 314.255 156.831 314.516 156.041 314.516C155.251 314.516 154.593 314.257 154.074 313.735C153.553 313.215 153.292 312.56 153.292 311.771V298.528C153.292 295.621 152.51 293.423 150.948 291.934C149.384 290.445 147.308 289.699 144.722 289.699C143.212 289.699 141.837 290.005 140.599 290.614C139.36 291.225 138.388 292.05 137.687 293.09C136.986 294.132 136.636 295.298 136.636 296.589V311.771C136.636 312.56 136.384 313.217 135.881 313.735C135.377 314.255 134.713 314.516 133.887 314.516C133.06 314.516 132.441 314.257 131.92 313.735C131.399 313.215 131.138 312.56 131.138 311.771V275.165C131.138 274.339 131.397 273.676 131.92 273.174C132.441 272.671 133.097 272.42 133.887 272.42C134.677 272.42 135.377 272.671 135.881 273.174C136.384 273.676 136.636 274.339 136.636 275.165V288.354C137.786 287.205 139.15 286.318 140.732 285.69C142.314 285.063 144.002 284.748 145.8 284.748C148.28 284.748 150.508 285.286 152.485 286.362L152.483 286.36Z" fill="#E8E8E8"/>
<path d="M172.293 313.384C171.555 312.666 171.187 311.787 171.187 310.745C171.187 309.703 171.555 308.817 172.293 308.081C173.03 307.344 173.902 306.977 174.908 306.977C175.915 306.977 176.786 307.346 177.522 308.081C178.257 308.817 178.627 309.705 178.627 310.745C178.627 311.785 178.257 312.664 177.522 313.384C176.784 314.101 175.913 314.46 174.908 314.46C173.903 314.46 173.03 314.103 172.293 313.384ZM172.966 303.694C172.428 303.157 172.157 302.509 172.157 301.757V275.217C172.157 274.428 172.419 273.763 172.939 273.226C173.46 272.688 174.116 272.418 174.906 272.418C175.696 272.418 176.352 272.686 176.873 273.226C177.394 273.763 177.655 274.428 177.655 275.217V301.757C177.655 302.511 177.376 303.157 176.819 303.694C176.261 304.232 175.623 304.502 174.906 304.502C174.151 304.502 173.505 304.233 172.965 303.694H172.966Z" fill="#E8E8E8"/>
<path d="M216.793 313.654C216.255 313.117 215.984 312.452 215.984 311.663V275.217C215.984 274.392 216.253 273.719 216.793 273.199C217.331 272.679 217.997 272.418 218.787 272.418H231.67C234.078 272.418 236.216 272.893 238.086 273.845C239.954 274.796 241.419 276.124 242.48 277.829C243.539 279.534 244.069 281.463 244.069 283.615C244.069 285.374 243.593 286.954 242.641 288.352C241.688 289.751 240.385 290.882 238.732 291.743C241.175 292.317 243.098 293.465 244.501 295.188C245.903 296.91 246.604 299.099 246.604 301.755C246.604 304.197 246.019 306.385 244.852 308.322C243.684 310.261 242.048 311.767 239.946 312.844C237.844 313.921 235.463 314.458 232.803 314.458H218.787C217.995 314.458 217.331 314.19 216.793 313.65V313.654ZM231.672 289.697C233.792 289.697 235.49 289.177 236.767 288.135C238.043 287.095 238.68 285.587 238.68 283.613C238.68 281.639 238.041 280.141 236.767 279.118C235.492 278.096 233.794 277.583 231.672 277.583H221.592V289.695H231.672V289.697ZM232.803 309.293C235.317 309.293 237.348 308.637 238.895 307.329C240.44 306.02 241.212 304.162 241.212 301.757C241.212 299.532 240.447 297.827 238.922 296.643C237.395 295.458 235.354 294.867 232.805 294.867H221.592V309.295H232.805L232.803 309.293Z" fill="#E8E8E8"/>
<path d="M280.7 286.763C282.946 288.073 284.725 289.867 286.037 292.147C287.348 294.426 288.004 296.964 288.004 299.764V311.769C288.004 312.558 287.743 313.215 287.222 313.733C286.701 314.254 286.045 314.515 285.255 314.515C284.466 314.515 283.807 314.255 283.289 313.733C282.768 313.213 282.506 312.558 282.506 311.769V309.778C281.248 311.321 279.721 312.523 277.924 313.386C276.128 314.246 274.186 314.677 272.103 314.677C269.515 314.677 267.17 314.031 265.068 312.738C262.966 311.446 261.312 309.66 260.108 307.381C258.904 305.101 258.302 302.563 258.302 299.764C258.302 296.964 258.949 294.426 260.242 292.147C261.535 289.867 263.324 288.073 265.606 286.763C267.889 285.454 270.413 284.798 273.179 284.798C275.946 284.798 278.453 285.454 280.7 286.763ZM278.058 308.512C279.514 307.632 280.654 306.43 281.48 304.904C282.307 303.379 282.719 301.666 282.719 299.764C282.719 297.861 282.305 296.139 281.48 294.596C280.654 293.053 279.514 291.843 278.058 290.962C276.602 290.082 274.976 289.643 273.179 289.643C271.383 289.643 269.757 290.082 268.301 290.962C266.845 291.841 265.695 293.053 264.851 294.596C264.007 296.139 263.585 297.863 263.585 299.764C263.585 301.664 264.007 303.379 264.851 304.904C265.695 306.43 266.845 307.632 268.301 308.512C269.757 309.391 271.383 309.83 273.179 309.83C274.976 309.83 276.602 309.391 278.058 308.512Z" fill="#E8E8E8"/>
<path d="M327.893 285.713C327.39 285.21 326.726 284.959 325.899 284.959C325.073 284.959 324.453 285.21 323.932 285.713C323.412 286.215 323.15 286.881 323.15 287.704V302.886C323.15 304.177 322.8 305.345 322.099 306.385C321.398 307.427 320.428 308.251 319.187 308.862C317.947 309.473 316.572 309.776 315.064 309.776C312.476 309.776 310.401 309.032 308.838 307.543C307.274 306.055 306.494 303.855 306.494 300.949V287.706C306.494 286.917 306.233 286.262 305.712 285.742C305.191 285.222 304.535 284.961 303.745 284.961C302.955 284.961 302.297 285.222 301.776 285.742C301.255 286.262 300.994 286.917 300.994 287.706V300.949C300.994 303.856 301.55 306.341 302.665 308.405C303.778 310.47 305.325 312.04 307.301 313.117C309.278 314.194 311.506 314.731 313.986 314.731C315.782 314.731 317.47 314.418 319.054 313.79C320.636 313.161 322 312.274 323.15 311.126V311.717C323.15 312.506 323.41 313.161 323.932 313.681C324.453 314.201 325.109 314.462 325.899 314.462C326.689 314.462 327.39 314.203 327.893 313.681C328.397 313.161 328.648 312.506 328.648 311.717V287.706C328.648 286.88 328.397 286.217 327.893 285.715V285.713Z" fill="#E8E8E8"/>
<path d="M105.95 322.021C105.468 322.586 105.234 322.909 104.512 322.742C103.046 322.404 100.344 320.299 98.5221 318.646C98.495 318.657 98.4621 318.667 98.4311 318.679C96.2958 319.357 94.1625 318.679 94.1625 318.679C94.147 318.679 94.1296 318.679 94.1141 318.667C92.3776 320.314 89.7313 322.329 88.0974 322.673C87.3753 322.824 86.8952 322.275 86.6571 321.952C84.9264 319.611 85.3155 312.272 86.6571 310.7C87.1372 310.138 87.3734 309.811 88.0974 309.985C89.6383 310.341 92.5557 312.655 94.3677 314.341C96.081 313.915 97.651 314.201 98.2104 314.329C99.9256 312.649 102.787 310.42 104.512 310.054C105.24 309.904 105.662 310.493 105.95 310.77C107.83 312.57 107.532 320.173 105.95 322.021Z" fill="#E8E8E8"/>
<path d="M283.374 278.049C283.083 277.773 282.661 277.183 281.935 277.334C280.21 277.699 277.347 279.928 275.634 281.608C275.073 281.479 273.505 281.195 271.791 281.62C269.979 279.934 267.064 277.62 265.521 277.264C264.799 277.092 264.561 277.417 264.081 277.98C262.739 279.551 262.35 286.89 264.081 289.231C264.319 289.554 264.797 290.103 265.521 289.952C267.155 289.608 269.801 287.594 271.538 285.947C271.553 285.958 271.571 285.958 271.586 285.958C271.586 285.958 273.721 286.637 275.855 285.958C275.888 285.947 275.919 285.937 275.946 285.925C277.767 287.578 280.468 289.684 281.935 290.022C282.657 290.188 282.892 289.865 283.374 289.301C284.955 287.453 285.253 279.849 283.374 278.049Z" fill="#E8E8E8"/>
</svg>
