<svg width="247" height="250" viewBox="0 0 247 250" fill="none" xmlns="http://www.w3.org/2000/svg">
<path d="M231.261 60.4667C220.794 41.636 206.177 26.9246 187.417 16.366C168.657 5.80744 147.354 0.528137 123.517 0.528137C99.6794 0.528137 78.0642 5.80744 59.304 16.366C50.8136 21.1397 43.1867 26.7722 36.427 33.23C28.2269 41.0783 21.2923 50.1572 15.6121 60.4667C12.545 66.0471 9.92082 71.8543 7.76563 77.8921C5.72211 83.6063 4.08431 89.5176 2.85224 95.6483C0.998554 104.883 0.06427 114.594 0.06427 124.759C0.06427 148.787 5.24564 170.257 15.6121 189.203C25.9786 208.149 40.5401 222.902 59.3003 233.46C60.3798 234.07 61.4667 234.661 62.5647 235.23C69.5514 238.873 76.888 241.814 84.5819 244.041C96.6793 247.551 109.655 249.302 123.513 249.302C133.712 249.302 143.423 248.35 152.658 246.443C165.191 243.874 176.831 239.539 187.569 233.46C206.225 222.902 220.791 208.149 231.258 189.203C241.725 170.257 246.962 148.787 246.962 124.759C246.962 100.731 241.728 79.3123 231.258 60.4704L231.261 60.4667ZM34.6068 142.426C33.6279 142.842 32.5038 142.232 32.3475 141.18C31.5583 135.871 31.1638 130.402 31.1638 124.762C31.1638 106.954 35.1019 90.804 42.9782 76.312C46.7377 69.3894 51.2081 63.1807 56.3634 57.6709C56.5644 57.459 56.8213 57.2954 57.1005 57.2099C65.8255 54.4884 73.8506 54.1501 81.1723 56.1949C90.2509 58.7305 97.0403 65.2441 101.518 75.7097C106.007 86.1865 106.037 95.6297 101.634 104.036C97.2301 112.453 89.4022 119.048 78.1573 123.852L34.6068 142.43V142.426ZM156.485 201.026C153.075 207.848 147.935 213.655 141.063 218.448C140.859 218.589 140.621 218.689 140.375 218.73C134.944 219.648 129.327 220.106 123.513 220.106C105.892 220.106 90.035 215.912 75.9388 207.528C61.8426 199.141 50.8545 187.701 42.9782 173.209C42.5241 172.369 42.8889 171.321 43.771 170.945L95.8939 148.705C109.421 142.928 121.589 141.459 132.379 144.274C143.17 147.099 151.088 154.419 156.135 166.22C161.595 178.983 161.711 190.59 156.489 201.026H156.485ZM204.052 173.209C201.07 178.693 197.634 183.749 193.752 188.363C192.758 189.545 190.797 188.772 190.886 187.229C191.519 176.172 189.471 165.108 184.733 154.025C178.699 139.935 170.015 129.904 158.674 123.941C148.4 118.528 136.917 116.591 124.239 118.126C122.806 118.301 121.868 116.706 122.72 115.539C128.129 108.133 131.65 100.247 133.291 91.8785C135.167 82.2902 134.11 72.8396 130.12 63.5116C125.236 52.083 118.045 43.0562 108.55 36.4087C107.44 35.628 106.312 34.8919 105.166 34.1966C103.889 33.4233 104.273 31.4603 105.743 31.2038C111.438 30.2111 117.364 29.7204 123.517 29.7204C141.346 29.7204 157.255 33.8732 171.247 42.1453C185.239 50.4286 196.175 61.8274 204.052 76.3083C211.928 90.8003 215.866 106.95 215.866 124.759C215.866 142.567 211.928 158.725 204.052 173.209Z" fill="#E8E8E8"/>
</svg>
