<svg width="186" height="195" viewBox="0 0 186 195" fill="none" xmlns="http://www.w3.org/2000/svg">
<g clip-path="url(#clip0_24_1271)">
<path d="M0.326576 112.674C-0.218239 106.643 -0.109276 100.612 0.893184 94.6006C1.48158 91.1019 1.89564 87.5838 2.54942 84.1044C4.72868 72.5838 8.41164 61.4691 13.2496 50.6057C16.3006 43.7436 20.5065 37.5387 25.7586 31.8751C30.7273 26.5207 36.0883 21.4949 41.9723 16.9137C49.5561 11.0181 58.0552 6.51423 67.6004 3.59541C72.6563 2.04902 77.8865 1.27582 83.1821 0.734587C86.0587 0.444638 88.9571 0.13536 91.8556 0.0193807C93.8387 -0.0579389 95.8436 0.0967003 97.8049 0.328659C100.093 0.618608 102.403 0.985876 104.626 1.56577C110.423 3.09283 116.176 4.79387 121.733 6.97814C126.201 8.73717 130.102 11.1921 133.697 14.0722C136.16 16.0439 138.514 18.1315 140.954 20.1418C145.749 24.0851 149.606 28.6856 152.744 33.7694C157.408 41.3274 161.984 48.924 165.427 57.0039C165.515 57.2166 165.602 57.4099 165.711 57.6225C168.26 62.5129 170.483 67.5001 171.9 72.7578C171.987 73.1057 172.118 73.473 172.292 73.8016C174.842 79.1946 176.258 84.8776 177.675 90.5606C180.094 100.264 182.513 109.968 184.91 119.671C186.697 126.882 186.327 133.995 183.711 141.031C182.382 144.588 180.987 148.144 179.004 151.488C178.459 152.397 177.893 153.305 177.261 154.156C174.929 157.21 172.597 160.245 170.222 163.28C166.43 168.074 162.028 172.384 157.168 176.308C152.439 180.135 147.209 183.421 141.434 185.954C140.475 186.379 139.472 186.785 138.47 187.094C131.889 189.104 125.242 190.921 118.29 191.83C115.021 192.255 111.796 193.028 108.527 193.55C101.815 194.633 95.0373 195.116 88.1944 195.019C87.6932 195.019 87.1919 195.019 86.7125 195.019C82.0489 195.019 77.4071 194.961 72.787 194.517C64.8981 193.763 57.2707 192.178 49.992 189.259C44.3913 186.978 38.8777 184.581 34.0398 181.141C27.2623 176.347 20.986 171.108 16.148 164.652C14.6225 162.642 13.2714 160.516 11.9856 158.37C8.60777 152.764 5.81832 146.946 4.35821 140.683C3.5083 137.01 2.76735 133.318 2.37508 129.568C1.78668 123.924 0.849599 118.318 0.348369 112.674H0.326576Z" fill="white"/>
<path d="M184.91 119.672C182.513 109.968 180.094 100.265 177.675 90.561C176.258 84.878 174.842 79.195 172.292 73.802C172.139 73.454 171.987 73.1061 171.9 72.7582C170.483 67.5004 168.26 62.5133 165.711 57.6229C165.602 57.4296 165.514 57.2169 165.427 57.0043C161.984 48.9244 157.408 41.3084 152.744 33.7698C149.606 28.7053 145.749 24.1048 140.954 20.1422C138.513 18.1319 136.16 16.0636 133.697 14.0726C130.101 11.1924 126.201 8.73754 121.733 6.97852C116.176 4.79424 110.423 3.09321 104.626 1.56615C102.403 0.986249 100.093 0.618981 97.8048 0.329033C95.8434 0.077744 93.8385 -0.0575653 91.8554 0.0197543C88.957 0.135734 86.0803 0.445012 83.1819 0.73496C77.8863 1.2762 72.6561 2.04939 67.6002 3.59579C58.055 6.5146 49.5559 11.0185 41.9721 16.9141C36.0881 21.4953 30.7271 26.5017 25.7584 31.8754C20.5064 37.5391 16.3004 43.744 13.2494 50.6061C8.41145 61.4695 4.7285 72.6035 2.54924 84.1048C1.89546 87.5842 1.4814 91.1022 0.893001 94.6009C-0.109459 100.613 -0.218422 106.643 0.326393 112.674C0.827623 118.319 1.74291 123.924 2.35311 129.569C2.74537 133.319 3.48632 137.011 4.33624 140.683C5.79634 146.946 8.60759 152.745 11.9637 158.37C13.2494 160.516 14.6224 162.623 16.126 164.652C20.9858 171.089 27.2621 176.328 34.0178 181.141C38.8557 184.562 44.3475 186.979 49.97 189.259C57.2269 192.198 64.8543 193.783 72.7651 194.517C77.4069 194.962 82.0487 195.039 86.6905 195.02C87.1918 195.02 87.693 195.02 88.1724 195.02C94.9935 195.116 101.771 194.633 108.505 193.551C111.774 193.029 114.999 192.236 118.268 191.83C125.198 190.941 131.845 189.124 138.448 187.095C139.45 186.785 140.453 186.379 141.412 185.954C147.187 183.422 152.417 180.136 157.146 176.308C162.006 172.384 166.408 168.074 170.2 163.28C172.575 160.265 174.907 157.21 177.239 154.156C177.893 153.306 178.459 152.397 178.982 151.489C180.965 148.145 182.36 144.607 183.689 141.031C186.305 134.015 186.675 126.882 184.888 119.672H184.91ZM183.602 133.203C183.297 135.696 182.6 138.132 181.685 140.509C180.878 142.597 180.007 144.665 179.113 146.734C177.914 149.498 176.302 152.069 174.34 154.466C172.205 157.095 170.243 159.839 168.064 162.449C162.376 169.234 155.773 175.207 147.775 179.904C146.315 180.754 144.855 181.605 143.308 182.32C140.082 183.866 136.835 185.316 133.588 186.824C132.477 187.346 131.322 187.655 130.058 187.81C128.576 187.984 127.138 188.332 125.656 188.583C121.254 189.337 116.808 189.955 112.449 190.864C103.907 192.662 95.255 193.338 86.7995 193.222C78.6709 193.241 70.9127 192.777 63.2199 191.347C60.0382 190.748 56.9654 189.897 53.958 188.815C49.7956 187.326 45.7422 185.645 41.8195 183.692C37.3738 181.469 33.4948 178.609 29.6811 175.632C24.7777 171.805 20.3974 167.591 16.976 162.681C12.0508 155.645 8.14994 148.183 5.70917 140.142C4.4452 135.986 3.90038 131.772 3.44274 127.52C3.29019 126.051 3.07226 124.601 2.89792 123.132C2.35311 118.512 1.85188 113.912 1.74291 109.272C1.4814 97.6357 3.5517 86.2504 6.38474 74.9231C8.67297 65.7607 12.2687 56.985 16.3222 48.3252C18.6758 43.3187 22.01 38.8342 25.802 34.6009C31.2719 28.4734 37.3303 22.8097 44.0424 17.7259C50.8199 12.6035 58.3601 8.66022 66.6413 5.83805C70.7819 4.42697 75.0751 3.61512 79.4336 3.05455C83.6178 2.51331 87.8238 2.06872 92.0515 1.85609C95.364 1.68213 98.6983 2.04939 101.924 2.80326C109.159 4.48496 116.22 6.61125 122.997 9.51073C126.636 11.0571 129.731 13.2801 132.695 15.6383C134.918 17.4167 137.075 19.253 139.254 21.07C143.439 24.5881 146.991 28.57 149.867 32.9966C154.248 39.762 158.301 46.7015 161.766 53.8922C163.51 57.4875 165.188 61.0829 166.844 64.6976C167.519 66.186 168.042 67.7517 168.565 69.2981C169.263 71.2698 169.764 73.2994 170.614 75.2131C172.488 79.485 173.774 83.8922 174.885 88.3574C177.5 98.8535 180.115 109.35 182.731 119.846C183.842 124.272 184.104 128.738 183.537 133.241L183.602 133.203Z" fill="#D09F9E"/>
<path d="M113.06 101.327C111.295 102.487 110.619 103.222 109.857 104.884C110.772 104.981 111.665 105 112.515 105.174C114.651 105.599 116.569 106.411 118.225 107.725C120.143 109.253 122.06 110.76 124.065 112.21C125.024 112.906 126.07 113.544 127.182 114.008C129.71 115.032 132.281 115.071 134.875 113.988C138.252 112.558 140.606 110.238 142.153 107.281C143.025 105.619 143.788 103.898 144.507 102.178C145.88 98.8724 148.103 96.0502 150.652 93.402C153.202 90.7538 156.406 90.0773 160.11 91.1018C161.788 91.5657 163.379 92.2229 164.709 93.2474C165.951 94.2139 167.193 95.1997 168.283 96.3209C173.469 101.656 176.477 107.938 177.588 114.839C179.092 124.156 178.155 133.338 174.799 142.307C173.033 146.985 170.2 151.102 166.496 154.774C161.178 160.013 155.076 164.42 148.342 168.131C140.497 172.461 132.347 176.25 123.695 179.149C116.765 181.469 109.595 183.035 102.251 183.905C100.028 184.175 97.8053 184.407 95.5824 184.542C92.7494 184.716 89.9381 184.465 87.1487 184.059C83.3786 183.499 79.652 182.783 75.9037 182.184C71.0004 181.411 66.097 180.696 61.1937 179.923C54.6123 178.898 48.2924 177.178 42.3431 174.414C39.9895 173.312 37.6359 172.249 35.3476 171.05C23.9719 165.077 16.4316 156.379 12.6833 145.167C9.82847 136.624 7.60563 127.925 7.03902 118.975C6.84288 115.96 6.4942 112.945 6.4942 109.948C6.4942 106.72 6.73392 103.473 6.93005 100.245C7.0826 97.9639 7.32232 95.7023 7.51845 93.4214C8.58629 81.3595 12.6179 70.0515 18.393 59.1688C21.2696 53.7564 24.6692 48.634 28.6791 43.8015C32.8415 38.7951 37.6576 34.3299 42.7789 30.1159C44.0647 29.0721 45.3722 28.0476 46.6362 26.9845C53.065 21.6301 60.5399 17.6868 68.4942 14.4394C70.5209 13.6082 72.5476 12.719 74.6397 12.0232C79.2162 10.4961 83.749 8.89172 88.6088 8.09919C90.7663 7.75125 92.9237 7.71259 95.0594 7.88656C97.6963 8.07986 100.333 8.4278 102.905 9.04636C107.154 10.0515 111.426 11.0373 115.479 12.5644C117.92 13.4729 120.317 14.4974 122.692 15.5605C124.937 16.5657 126.92 17.9188 128.533 19.6198C133.349 24.6842 137.991 29.9033 141.282 35.9149C142.088 37.3647 142.829 38.8531 143.374 40.3995C144.747 44.3234 145.923 48.3247 147.34 52.2487C149.606 58.5502 148.974 64.7551 146.904 70.9407C146.207 72.9897 145.444 75.0193 144.529 76.991C143.069 80.1804 142.371 83.4665 142.437 86.9072C142.502 89.9613 141.717 92.9188 140.628 95.7796C139.778 98.0025 138.71 100.167 137.642 102.332C136.705 104.265 135.158 105.793 133.153 106.952C130.32 108.595 127.4 108.789 124.458 107.32C122.954 106.566 121.581 105.599 120.165 104.671C119.358 104.149 118.639 103.531 117.833 103.009C116.155 101.907 115.523 101.714 113.06 101.366V101.327ZM100.028 145.438C103.275 145.515 104.975 147.081 106.152 149.265C106.435 149.787 106.74 150.329 107.045 150.85C108.048 152.532 108.985 154.272 110.118 155.896C111.927 158.486 114.368 159.143 117.593 158.061C117.963 157.945 118.465 157.751 118.726 157.887C119.881 158.466 121.036 158.157 122.104 157.848C123.913 157.326 125.678 156.669 127.4 155.954C129.121 155.238 130.799 154.427 132.456 153.576C134.308 152.609 136.117 151.566 137.925 150.522C138.252 150.329 138.601 150.077 138.34 149.555C137.969 149.555 137.577 149.517 137.185 149.555C136.618 149.633 136.051 149.768 135.485 149.845C135.071 149.903 134.613 149.961 134.373 149.575C134.068 149.091 134.417 148.724 134.766 148.415C135.114 148.106 135.55 147.874 135.899 147.564C136.095 147.39 136.182 147.158 136.378 146.849C134.962 146.617 133.937 147.255 132.804 147.41C132.652 147.429 132.499 147.371 132.303 147.332C132.063 146.985 131.824 146.637 131.584 146.308C130.734 146.076 130.037 146.308 129.339 146.521C128.01 146.927 126.68 147.332 125.329 147.758C123.913 148.202 122.453 148.376 120.927 148.415C119.38 148.473 118.378 147.912 117.724 146.753C116.765 145.032 115.828 143.312 114.869 141.611C113.54 139.214 112.864 136.624 112.341 134.014C111.949 132.062 111.687 130.071 111.208 128.138C110.576 125.548 109.857 122.977 109.072 120.425C107.961 116.772 102.818 113.524 97.2387 115.303C93.425 116.521 90.0035 118.357 87.3012 121.024C84.49 123.827 81.8967 126.804 80.0225 130.225C79.7392 130.747 79.4123 131.269 79.0418 131.753C78.9329 131.907 78.6496 131.946 78.2137 132.139C78.7149 129.143 80.6763 126.901 82.0056 124.291C80.5455 124.098 79.238 123.943 77.9522 123.731C74.1167 123.131 70.6735 121.759 67.5789 119.652C66.3149 118.782 65.2907 117.738 64.6369 116.424C64.5279 116.192 64.5279 115.902 64.4408 115.438C67.0777 117.99 67.7751 118.55 70.1722 119.633C71.9592 120.425 73.768 121.179 75.6422 121.74C77.3638 122.262 79.1726 122.513 80.9596 122.88C82.3761 123.17 83.5965 122.938 84.3374 121.682C84.4464 121.488 84.6207 121.314 84.7733 121.14C88.3473 117.062 92.9019 114.24 98.6116 113.061C99.2 112.945 99.7012 112.771 100.094 112.365C102.578 109.794 105.171 107.3 107.547 104.652C109.399 102.564 111.251 100.515 113.387 98.6404C114.433 97.7126 115.283 96.6108 116.198 95.567C116.351 95.3737 116.656 95.1224 116.438 94.9871C115.719 94.7165 115.523 95.7603 114.804 95.219C115.239 94.3299 115.697 93.46 116.111 92.5708C116.198 92.3582 116.111 92.0876 116.111 91.4497C115.479 92.1263 115.109 92.4935 114.738 92.8801C114.302 93.3634 114.302 93.3827 113.125 93.8273C113.365 93.3054 113.496 92.9188 113.714 92.5322C114.084 91.875 114.542 91.2564 114.912 90.5992C115.13 90.2126 115.37 89.7873 114.956 89.3814C114.651 89.0721 113.954 89.2848 113.496 89.8067C112.886 90.5025 112.319 91.2371 111.709 91.9136C111.535 92.1069 111.251 92.2422 110.685 92.6482C111.055 90.8892 112.297 89.7873 112.581 88.125C111.97 88.3376 111.535 88.3763 111.273 88.5889C110.227 89.4201 109.225 90.2899 108.244 91.1791C107.677 91.701 107.198 92.3196 106.653 92.8801C106.304 93.2474 105.869 93.4214 105.215 93.0154C105.019 92.5129 104.801 91.9136 104.474 91.0051C104.169 91.701 103.929 92.0876 103.842 92.5129C103.253 95.4317 101.379 97.616 98.8077 99.3943C96.4323 101.018 93.9916 102.545 91.2457 103.647C90.0471 104.13 88.8049 104.555 87.5409 104.923C85.7757 105.425 84.0759 105.251 82.5722 104.265C81.439 103.531 80.3494 102.719 79.3469 101.849C78.4534 101.076 77.6689 100.206 76.9279 99.3363C74.8577 96.9201 72.2207 95.219 69.0172 94.1559C68.8429 94.0979 68.7339 93.866 68.5596 93.692C70.1722 93.4407 70.303 93.3827 71.0439 93.692C72.9399 94.4652 74.8141 95.2577 76.2524 96.6495C77.4292 97.7899 78.606 98.9304 79.7828 100.071C80.916 101.153 82.0928 102.197 83.5529 102.932C85.3181 103.802 86.7346 103.666 88.5434 102.429C87.5845 99.7809 86.9961 97.0361 86.6257 94.2525C86.5167 93.4794 86.1898 92.9188 85.2745 92.5902C80.3494 90.8698 77.1241 87.3711 73.9641 83.8531C73.7898 83.6598 73.6155 83.3505 74.1821 83.1379C74.7487 83.6211 75.3371 84.1237 75.9255 84.6263C77.1241 85.6314 78.3009 86.6946 79.5431 87.6611C82.8555 90.1933 86.6257 91.7203 91.0496 91.8556C93.4903 91.933 95.8222 91.5077 98.0232 90.5219C99.0475 90.058 99.723 89.3621 99.9627 88.3569C100.05 88.0283 100.093 87.6804 100.159 87.3325C100.987 87.4098 101.728 87.5257 102.469 87.5064C103.471 87.5064 103.994 87.1198 104.212 86.2306C104.43 85.3801 104.583 84.491 104.561 83.6211C104.496 81.8621 105.237 80.4897 106.697 79.3299C107.743 78.4987 108.745 77.6095 109.769 76.759C112.363 74.652 114.498 72.2358 116.176 69.491C117.898 66.6688 118.901 63.6533 119.533 60.5219C120.121 57.661 120.186 54.8002 119.336 51.9781C118.53 49.2719 117.68 46.5657 116.591 43.9562C114.455 38.7177 110.772 34.5618 105.171 31.875C99.4833 29.1495 93.5557 27.6224 86.9961 28.6855C81.1775 29.6327 75.8601 31.4497 71.2837 34.9098C64.7895 39.8002 61.7385 46.0631 61.3462 53.4665C61.1501 57.0038 61.5642 60.5219 62.0436 64.0399C62.4576 67.1134 61.6949 70.0322 60.6271 72.9123C60.2566 73.8982 59.7118 74.942 58.6875 75.4059C57.6197 75.8891 57.0531 76.6044 56.5301 77.4355C53.283 82.4033 50.2974 87.5064 47.7258 92.7835C47.0285 94.1946 46.4837 95.6636 45.9824 97.152C44.5223 101.327 43.9339 105.638 43.5199 109.968C43.2148 113.119 43.084 116.289 43.3455 119.459C43.7814 124.832 44.7402 130.129 45.8953 135.406C47.4861 142.713 50.9294 149.207 56.4647 154.871C58.8837 157.345 61.7821 159.066 65.1381 160.264C67.1431 160.999 69.2569 161.501 71.458 161.211C74.7487 160.767 77.974 160.09 80.8724 158.505C82.6376 157.539 84.3592 156.514 86.168 155.606C88.7178 154.33 90.9188 152.687 93.0327 150.889C95.3209 148.975 97.7617 147.197 99.941 145.515L100.028 145.438ZM126.572 132.468C126.005 132.584 125.504 132.584 125.09 132.777C123.913 133.318 122.714 133.859 121.646 134.517C119.859 135.599 118.116 136.701 116.046 137.339C115.85 137.397 115.697 137.609 115.523 137.764C116.569 140.432 117.615 143.061 118.661 145.689C118.748 145.883 118.901 146.057 118.988 146.173C120.6 145.38 122.191 144.607 123.76 143.814C125.068 143.157 126.375 142.539 127.639 141.823C129.47 140.799 131.17 139.62 132.456 138.054C132.717 137.725 132.87 137.339 133.066 136.991C132.281 136.372 131.235 137.262 130.56 136.218C130.625 135.677 130.734 134.981 130.843 134.149C130.407 134.149 130.015 134.111 129.622 134.149C128.882 134.227 128.162 134.343 127.421 134.42C127.291 134.42 127.138 134.304 126.855 134.169C126.768 133.686 126.681 133.125 126.572 132.468Z" fill="#D09F9E"/>
<path d="M81.5262 69.0463C80.3058 69.2783 79.6302 68.969 79.02 68.6404C77.1677 67.6352 75.4243 64.929 76.2524 62.5128C77.0805 60.0192 80.5891 58.5888 83.2478 59.7293C83.4875 59.8453 83.6401 60.1159 83.9016 60.3865C83.5529 60.5411 83.3568 60.7151 83.1389 60.7344C82.812 60.7344 82.4851 60.5991 82.1582 60.6378C78.8675 60.9471 77.233 62.5515 78.2137 65.6249C78.5188 66.5527 79.0854 67.3646 79.9789 67.9832C80.4148 68.2924 80.8506 68.6017 81.5262 69.085V69.0463Z" fill="#D09F9E"/>
<path d="M104.43 78.3826C103.994 78.5759 103.58 78.9239 103.21 78.8852C102.316 78.8079 101.357 78.7112 100.595 78.3246C99.832 77.9574 99.2654 77.2615 98.6988 76.6429C98.2847 76.179 98.1757 75.5798 98.4808 74.9419C98.7859 75.0192 99.1346 74.9999 99.2 75.1159C100.115 76.7976 101.772 77.5514 103.689 77.9767C103.842 78.0153 104.016 78.0347 104.169 78.0927C104.234 78.112 104.278 78.2086 104.43 78.3633V78.3826Z" fill="#D09F9E"/>
</g>
<defs>
<clipPath id="clip0_24_1271">
<rect width="186" height="195" fill="white"/>
</clipPath>
</defs>
</svg>
